<svg xmlns="http://www.w3.org/2000/svg" viewBox="0 0 112.01 118.61"><defs><style>.cls-1{opacity:0.9;}.cls-2{fill:#fff;}.cls-10,.cls-11,.cls-12,.cls-13,.cls-14,.cls-15,.cls-16,.cls-17,.cls-18,.cls-19,.cls-2,.cls-20,.cls-21,.cls-22,.cls-23,.cls-24,.cls-25,.cls-26,.cls-27,.cls-28,.cls-29,.cls-3,.cls-30,.cls-31,.cls-32,.cls-33,.cls-34,.cls-35,.cls-36,.cls-37,.cls-38,.cls-39,.cls-4,.cls-40,.cls-41,.cls-42,.cls-43,.cls-44,.cls-45,.cls-46,.cls-47,.cls-48,.cls-49,.cls-5,.cls-50,.cls-51,.cls-52,.cls-53,.cls-54,.cls-55,.cls-56,.cls-57,.cls-58,.cls-59,.cls-6,.cls-60,.cls-61,.cls-62,.cls-63,.cls-64,.cls-65,.cls-66,.cls-67,.cls-68,.cls-69,.cls-7,.cls-70,.cls-71,.cls-72,.cls-73,.cls-74,.cls-75,.cls-76,.cls-77,.cls-78,.cls-8,.cls-9{fill-rule:evenodd;}.cls-3{fill:#fefefe;}.cls-4{fill:#fdfdfd;}.cls-5{fill:#fcfcfc;}.cls-6{fill:#fbfbfb;}.cls-7{fill:#fafafa;}.cls-8{fill:#f9f9f9;}.cls-9{fill:#f8f8f8;}.cls-10{fill:#f7f7f7;}.cls-11{fill:#f6f6f6;}.cls-12{fill:#f5f5f5;}.cls-13{fill:#f4f4f4;}.cls-14{fill:#f3f3f3;}.cls-15{fill:#f2f2f2;}.cls-16{fill:#f1f1f1;}.cls-17{fill:#f0f0f0;}.cls-18{fill:#efefef;}.cls-19{fill:#eee;}.cls-20{fill:#ededed;}.cls-21{fill:#ececec;}.cls-22{fill:#ebebeb;}.cls-23{fill:#eaeaea;}.cls-24{fill:#e9e9e9;}.cls-25{fill:#e8e8e8;}.cls-26{fill:#e7e7e7;}.cls-27{fill:#e6e6e6;}.cls-28{fill:#e5e5e5;}.cls-29{fill:#e4e4e4;}.cls-30{fill:#e3e3e3;}.cls-31{fill:#e2e2e2;}.cls-32{fill:#e1e1e1;}.cls-33{fill:#e0e0e0;}.cls-34{fill:#dfdfdf;}.cls-35{fill:#dedede;}.cls-36{fill:#ddd;}.cls-37{fill:#dcdcdc;}.cls-38{fill:#dbdbdb;}.cls-39{fill:#dadada;}.cls-40{fill:#d9d9d9;}.cls-41{fill:#d8d8d8;}.cls-42{fill:#d7d7d7;}.cls-43{fill:#d6d6d6;}.cls-44{fill:#d5d5d5;}.cls-45{fill:#d4d4d4;}.cls-46{fill:#d3d3d3;}.cls-47{fill:#d2d2d2;}.cls-48{fill:#d1d1d1;}.cls-49{fill:#d0d0d0;}.cls-50{fill:#cfcfcf;}.cls-51{fill:#cecece;}.cls-52{fill:#cdcdcd;}.cls-53{fill:#ccc;}.cls-54{fill:#cbcbcb;}.cls-55{fill:#cacaca;}.cls-56{fill:#c9c9c9;}.cls-57{fill:#c8c8c8;}.cls-58{fill:#c7c7c7;}.cls-59{fill:#c6c6c6;}.cls-60{fill:#c5c5c5;}.cls-61{fill:#c4c4c4;}.cls-62{fill:#c3c3c3;}.cls-63{fill:#c2c2c2;}.cls-64{fill:#c1c1c1;}.cls-65{fill:silver;}.cls-66{fill:#bfbfbf;}.cls-67{fill:#bebebe;}.cls-68{fill:#bdbdbd;}.cls-69{fill:#bcbcbc;}.cls-70{fill:#bbb;}.cls-71{fill:#bababa;}.cls-72{fill:#b9b9b9;}.cls-73{fill:#b8b8b8;}.cls-74{fill:#b7b7b7;}.cls-75{fill:#b6b6b6;}.cls-76{fill:#b5b5b5;}.cls-77{fill:#b4b4b4;}.cls-78{fill:#b3b3b3;}.cls-79{fill:#e2e1d9;}.cls-80{fill:#3f3f3f;}</style></defs><title>Asset 5</title><g id="Layer_2" data-name="Layer 2"><g id="Layer_1-2" data-name="Layer 1"><g class="cls-1"><path class="cls-2" d="M52.88,118.61c24,0,43.39-1.83,43.39-4.08s-19.43-4.08-43.39-4.08S9.5,112.27,9.5,114.52s19.43,4.08,43.39,4.08Z"/><path class="cls-3" d="M52.88,118.56c23.73,0,43-1.81,43-4s-19.25-4-43-4-43,1.81-43,4,19.25,4,43,4Z"/><path class="cls-4" d="M52.87,118.51c23.5,0,42.56-1.79,42.56-4s-19.06-4-42.56-4-42.56,1.79-42.56,4,19.06,4,42.56,4Z"/><path class="cls-5" d="M52.87,118.46c23.27,0,42.15-1.77,42.15-4s-18.88-4-42.15-4-42.15,1.77-42.15,4,18.87,4,42.15,4Z"/><path class="cls-6" d="M52.86,118.41c23,0,41.74-1.75,41.74-3.91s-18.69-3.91-41.74-3.91-41.73,1.75-41.73,3.91,18.69,3.91,41.73,3.91Z"/><path class="cls-7" d="M52.85,118.36c22.82,0,41.32-1.73,41.32-3.87s-18.51-3.87-41.32-3.87-41.32,1.73-41.32,3.87,18.5,3.87,41.32,3.87Z"/><path class="cls-8" d="M52.85,118.32c22.59,0,40.91-1.71,40.91-3.83s-18.32-3.82-40.91-3.82-40.91,1.71-40.91,3.82,18.32,3.83,40.91,3.83Z"/><path class="cls-9" d="M52.84,118.27c22.36,0,40.5-1.69,40.5-3.78s-18.14-3.78-40.5-3.78-40.49,1.69-40.49,3.78,18.13,3.78,40.49,3.78Z"/><path class="cls-10" d="M52.84,118.22c22.13,0,40.08-1.67,40.08-3.74s-18-3.74-40.08-3.74-40.08,1.67-40.08,3.74,18,3.74,40.08,3.74Z"/><path class="cls-11" d="M52.83,118.17c21.9,0,39.67-1.66,39.67-3.7s-17.77-3.7-39.67-3.7-39.67,1.66-39.67,3.7,17.77,3.7,39.67,3.7Z"/><path class="cls-12" d="M52.83,118.12c21.68,0,39.26-1.64,39.26-3.65s-17.58-3.65-39.26-3.65-39.26,1.64-39.26,3.65,17.58,3.65,39.26,3.65Z"/><path class="cls-13" d="M52.82,118.07c21.45,0,38.85-1.62,38.85-3.61s-17.4-3.61-38.85-3.61S14,112.47,14,114.46s17.39,3.61,38.84,3.61Z"/><path class="cls-14" d="M52.82,118c21.22,0,38.43-1.6,38.43-3.57S74,110.89,52.82,110.89s-38.43,1.6-38.43,3.57S31.6,118,52.82,118Z"/><path class="cls-15" d="M52.81,118c21,0,38-1.58,38-3.53s-17-3.53-38-3.53-38,1.58-38,3.53,17,3.53,38,3.53Z"/><path class="cls-16" d="M52.81,117.93c20.76,0,37.61-1.56,37.61-3.48S73.57,111,52.81,111s-37.6,1.56-37.6,3.48,16.84,3.48,37.6,3.48Z"/><path class="cls-17" d="M52.8,117.88c20.54,0,37.19-1.54,37.19-3.44S73.34,111,52.8,111s-37.19,1.54-37.19,3.44,16.65,3.44,37.19,3.44Z"/><path class="cls-18" d="M52.79,117.83c20.31,0,36.78-1.52,36.78-3.4S73.1,111,52.79,111,16,112.55,16,114.43s16.47,3.4,36.78,3.4Z"/><path class="cls-19" d="M52.79,117.78c20.08,0,36.37-1.5,36.37-3.36s-16.29-3.35-36.37-3.35-36.36,1.5-36.36,3.35,16.29,3.36,36.36,3.36Z"/><path class="cls-20" d="M52.78,117.73c19.85,0,36-1.48,36-3.31s-16.1-3.31-36-3.31-36,1.48-36,3.31,16.1,3.31,36,3.31Z"/><path class="cls-21" d="M52.78,117.68c19.62,0,35.54-1.46,35.54-3.27s-15.92-3.27-35.54-3.27-35.54,1.46-35.54,3.27,15.91,3.27,35.54,3.27Z"/><path class="cls-22" d="M52.77,117.63c19.4,0,35.13-1.45,35.13-3.23s-15.73-3.23-35.13-3.23-35.12,1.45-35.12,3.23,15.73,3.23,35.13,3.23Z"/><path class="cls-23" d="M52.77,117.59c19.17,0,34.71-1.43,34.71-3.19s-15.55-3.18-34.71-3.18-34.71,1.43-34.71,3.18,15.54,3.19,34.71,3.19Z"/><path class="cls-24" d="M52.76,117.54c18.94,0,34.3-1.41,34.3-3.14s-15.36-3.14-34.3-3.14-34.3,1.41-34.3,3.14,15.36,3.14,34.3,3.14Z"/><path class="cls-25" d="M52.76,117.49c18.71,0,33.89-1.39,33.89-3.1s-15.18-3.1-33.89-3.1-33.89,1.39-33.89,3.1,15.18,3.1,33.89,3.1Z"/><path class="cls-26" d="M52.75,117.44c18.48,0,33.48-1.37,33.48-3.06s-15-3.06-33.48-3.06-33.47,1.37-33.47,3.06,15,3.06,33.47,3.06Z"/><path class="cls-27" d="M52.75,117.39c18.25,0,33.06-1.35,33.06-3s-14.81-3-33.06-3-33.06,1.35-33.06,3,14.8,3,33.06,3Z"/><path class="cls-28" d="M52.74,117.34c18,0,32.65-1.33,32.65-3s-14.62-3-32.65-3-32.65,1.33-32.65,3,14.62,3,32.65,3Z"/><path class="cls-29" d="M52.74,117.29c17.8,0,32.24-1.31,32.24-2.93s-14.44-2.93-32.24-2.93-32.23,1.31-32.23,2.93,14.43,2.93,32.23,2.93Z"/><path class="cls-30" d="M52.73,117.24c17.57,0,31.82-1.29,31.82-2.89s-14.25-2.89-31.82-2.89-31.82,1.29-31.82,2.89,14.25,2.89,31.82,2.89Z"/><path class="cls-31" d="M52.72,117.2c17.34,0,31.41-1.27,31.41-2.84s-14.07-2.84-31.41-2.84-31.41,1.27-31.41,2.84,14.06,2.84,31.41,2.84Z"/><path class="cls-32" d="M52.72,117.15c17.12,0,31-1.25,31-2.8s-13.88-2.8-31-2.8-31,1.25-31,2.8,13.88,2.8,31,2.8Z"/><path class="cls-33" d="M52.71,117.1c16.89,0,30.58-1.24,30.58-2.76s-13.7-2.76-30.58-2.76-30.58,1.23-30.58,2.76,13.7,2.76,30.58,2.76Z"/><path class="cls-34" d="M52.71,117.05c16.66,0,30.17-1.22,30.17-2.72s-13.51-2.72-30.17-2.72-30.17,1.22-30.17,2.72,13.51,2.72,30.17,2.72Z"/><path class="cls-35" d="M52.7,117c16.43,0,29.76-1.2,29.76-2.67s-13.33-2.67-29.76-2.67-29.75,1.2-29.75,2.67S36.27,117,52.7,117Z"/><path class="cls-36" d="M52.7,117C68.9,117,82,115.78,82,114.32s-13.14-2.63-29.34-2.63-29.34,1.18-29.34,2.63S36.5,117,52.7,117Z"/><path class="cls-37" d="M52.69,116.9c16,0,28.93-1.16,28.93-2.59s-13-2.59-28.93-2.59-28.93,1.16-28.93,2.59,13,2.59,28.93,2.59Z"/><path class="cls-38" d="M52.69,116.86c15.75,0,28.52-1.14,28.52-2.54s-12.77-2.55-28.52-2.55-28.52,1.14-28.52,2.55,12.77,2.54,28.52,2.54Z"/><path class="cls-39" d="M52.68,116.81c15.52,0,28.1-1.12,28.1-2.5s-12.59-2.5-28.1-2.5-28.1,1.12-28.1,2.5,12.58,2.5,28.1,2.5Z"/><path class="cls-40" d="M52.67,116.76c15.29,0,27.69-1.1,27.69-2.46s-12.4-2.46-27.69-2.46S25,112.94,25,114.3s12.4,2.46,27.69,2.46Z"/><path class="cls-40" d="M52.67,116.71c15.06,0,27.28-1.08,27.28-2.42s-12.22-2.42-27.28-2.42S25.39,113,25.39,114.29s12.22,2.42,27.28,2.42Z"/><path class="cls-41" d="M52.66,116.66c14.83,0,26.87-1.06,26.87-2.37s-12-2.37-26.87-2.37S25.8,113,25.8,114.29s12,2.38,26.86,2.38Z"/><path class="cls-42" d="M52.66,116.61c14.6,0,26.45-1,26.45-2.33s-11.85-2.33-26.45-2.33-26.45,1-26.45,2.33,11.85,2.33,26.45,2.33Z"/><path class="cls-43" d="M52.65,116.56c14.38,0,26-1,26-2.29S67,112,52.65,112s-26,1-26,2.29,11.66,2.29,26,2.29Z"/><path class="cls-44" d="M52.65,116.52c14.15,0,25.63-1,25.63-2.25S66.8,112,52.65,112,27,113,27,114.27s11.48,2.25,25.62,2.25Z"/><path class="cls-45" d="M52.64,116.47c13.92,0,25.21-1,25.21-2.2s-11.29-2.2-25.21-2.2-25.21,1-25.21,2.2,11.29,2.2,25.21,2.2Z"/><path class="cls-46" d="M52.64,116.42c13.69,0,24.8-1,24.8-2.16s-11.11-2.16-24.8-2.16-24.8,1-24.8,2.16,11.11,2.16,24.8,2.16Z"/><path class="cls-47" d="M52.63,116.37c13.47,0,24.39-.95,24.39-2.12s-10.92-2.12-24.39-2.12-24.38.95-24.38,2.12,10.92,2.12,24.38,2.12Z"/><path class="cls-48" d="M52.63,116.32c13.24,0,24-.93,24-2.08s-10.74-2.08-24-2.08-24,.93-24,2.08,10.74,2.08,24,2.08Z"/><path class="cls-49" d="M52.62,116.27c13,0,23.56-.91,23.56-2s-10.55-2-23.56-2-23.56.91-23.56,2,10.55,2,23.56,2Z"/><path class="cls-50" d="M52.62,116.22c12.78,0,23.15-.89,23.15-2s-10.37-2-23.15-2-23.15.89-23.15,2,10.37,2,23.15,2Z"/><path class="cls-51" d="M52.61,116.18c12.55,0,22.74-.87,22.74-1.95s-10.18-1.95-22.74-1.95-22.73.87-22.73,1.95,10.18,1.95,22.73,1.95Z"/><path class="cls-52" d="M52.6,116.13c12.33,0,22.32-.85,22.32-1.91s-10-1.91-22.32-1.91-22.32.85-22.32,1.91,10,1.91,22.32,1.91Z"/><path class="cls-53" d="M52.6,116.08c12.1,0,21.91-.83,21.91-1.86s-9.81-1.86-21.91-1.86-21.91.83-21.91,1.86,9.81,1.86,21.91,1.86Z"/><path class="cls-54" d="M52.59,116c11.87,0,21.5-.81,21.5-1.82s-9.63-1.82-21.5-1.82-21.49.81-21.49,1.82S40.73,116,52.59,116Z"/><path class="cls-55" d="M52.59,116c11.64,0,21.08-.8,21.08-1.78s-9.44-1.78-21.08-1.78-21.08.8-21.08,1.78S41,116,52.59,116Z"/><path class="cls-56" d="M52.58,115.93c11.41,0,20.67-.78,20.67-1.73s-9.26-1.74-20.67-1.74-20.67.78-20.67,1.74,9.26,1.73,20.67,1.73Z"/><path class="cls-57" d="M52.58,115.88c11.18,0,20.26-.76,20.26-1.69s-9.07-1.69-20.26-1.69-20.25.76-20.25,1.69,9.07,1.69,20.25,1.69Z"/><path class="cls-58" d="M52.57,115.84c11,0,19.84-.74,19.84-1.65s-8.89-1.65-19.84-1.65-19.84.74-19.84,1.65,8.89,1.65,19.84,1.65Z"/><path class="cls-59" d="M52.57,115.79c10.73,0,19.43-.72,19.43-1.61s-8.7-1.61-19.43-1.61-19.43.72-19.43,1.61,8.7,1.61,19.43,1.61Z"/><path class="cls-60" d="M52.56,115.74c10.5,0,19-.7,19-1.56s-8.52-1.56-19-1.56-19,.7-19,1.56,8.52,1.56,19,1.56Z"/><path class="cls-61" d="M52.56,115.69c10.27,0,18.6-.68,18.6-1.52s-8.33-1.52-18.6-1.52-18.6.68-18.6,1.52,8.33,1.52,18.6,1.52Z"/><path class="cls-62" d="M52.55,115.64c10,0,18.19-.66,18.19-1.48s-8.15-1.48-18.19-1.48-18.19.66-18.19,1.48,8.15,1.48,18.19,1.48Z"/><path class="cls-63" d="M52.54,115.59c9.82,0,17.78-.64,17.78-1.44s-8-1.44-17.78-1.44-17.77.64-17.77,1.44,8,1.44,17.77,1.44Z"/><path class="cls-64" d="M52.54,115.54c9.59,0,17.36-.62,17.36-1.39s-7.78-1.39-17.36-1.39-17.36.62-17.36,1.39,7.78,1.39,17.36,1.39Z"/><path class="cls-65" d="M52.53,115.49c9.36,0,17-.6,17-1.35s-7.59-1.35-17-1.35-16.95.6-16.95,1.35,7.59,1.35,16.95,1.35Z"/><path class="cls-66" d="M52.53,115.45c9.13,0,16.54-.59,16.54-1.31s-7.41-1.31-16.54-1.31S36,113.41,36,114.14s7.41,1.31,16.54,1.31Z"/><path class="cls-67" d="M52.52,115.4c8.91,0,16.13-.57,16.13-1.26s-7.22-1.27-16.13-1.27-16.12.57-16.12,1.27,7.22,1.26,16.12,1.26Z"/><path class="cls-68" d="M52.52,115.35c8.68,0,15.71-.55,15.71-1.22s-7-1.22-15.71-1.22-15.71.55-15.71,1.22,7,1.22,15.71,1.22Z"/><path class="cls-69" d="M52.51,115.3c8.45,0,15.3-.53,15.3-1.18s-6.85-1.18-15.3-1.18-15.3.53-15.3,1.18,6.85,1.18,15.3,1.18Z"/><path class="cls-70" d="M52.51,115.25c8.22,0,14.89-.51,14.89-1.14S60.73,113,52.51,113s-14.88.51-14.88,1.14,6.67,1.14,14.88,1.14Z"/><path class="cls-71" d="M52.5,115.2c8,0,14.47-.49,14.47-1.09S60.49,113,52.5,113,38,113.5,38,114.11s6.48,1.09,14.47,1.09Z"/><path class="cls-72" d="M52.5,115.15c7.76,0,14.06-.47,14.06-1.05S60.26,113,52.5,113s-14.06.47-14.06,1.05,6.3,1.05,14.06,1.05Z"/><path class="cls-73" d="M52.49,115.11c7.53,0,13.65-.45,13.65-1s-6.11-1-13.65-1-13.64.45-13.64,1,6.11,1,13.64,1Z"/><path class="cls-74" d="M52.49,115.06c7.31,0,13.23-.43,13.23-1s-5.93-1-13.23-1-13.23.43-13.23,1,5.93,1,13.23,1Z"/><path class="cls-75" d="M52.48,115c7.08,0,12.82-.41,12.82-.92s-5.74-.93-12.82-.93-12.82.41-12.82.93,5.74.92,12.82.92Z"/><path class="cls-76" d="M52.47,115c6.85,0,12.41-.39,12.41-.88s-5.56-.88-12.41-.88-12.4.39-12.4.88,5.56.88,12.4.88Z"/><path class="cls-77" d="M52.47,114.91c6.62,0,12-.38,12-.84s-5.37-.84-12-.84-12,.38-12,.84,5.37.84,12,.84Z"/><path class="cls-78" d="M52.46,114.86c6.39,0,11.58-.36,11.58-.8s-5.19-.8-11.58-.8-11.58.36-11.58.8,5.19.8,11.58.8Z"/></g><circle class="cls-79" cx="56.01" cy="56.01" r="56.01"/><ellipse class="cls-80" cx="53.73" cy="33.98" rx="4.92" ry="4.98"/><path class="cls-80" d="M39.85,52.25c0,1.56,1.2,3.4,1.89,4.71a15.85,15.85,0,0,0,5.28,6V85.09a2.74,2.74,0,0,0,2.74,2.85,2.87,2.87,0,0,0,2.89-2.85V65.17a1.12,1.12,0,0,1,1.11-1,.93.93,0,0,1,1,1V85a2.89,2.89,0,0,0,5.79,0l.09-20.55c0-.19,0-13.89,0-17.54l-.09-1.77a16.4,16.4,0,0,0,7.55-1.23c1.24-.49,1.68-2,2.16-3.13a28.59,28.59,0,0,0,1.87-6.33,2.29,2.29,0,0,0-2.79-2.61l.49-2.22a.67.67,0,1,0-1.32-.3l-.9,4.09a2.63,2.63,0,0,0-.08.3,24.82,24.82,0,0,1-1.94,6.11,10.6,10.6,0,0,1-5.28.52h0l-.25,0-.37-.08a2.27,2.27,0,0,0-.62-.08c-3.18-.46-9.42-.85-12.46.69l0,.06a2.5,2.5,0,0,0-.67.37,16.09,16.09,0,0,0-4.43,6.13C40.83,48.79,39.85,50.66,39.85,52.25Zm4.78-.09a17.56,17.56,0,0,1,2.44-5.28l0,9.68a19.59,19.59,0,0,1-1.27-2c-.37-.66-.69-1.36-1-2.06A2.81,2.81,0,0,1,44.63,52.16Zm-.05-.2c0-.24,0-.24,0,0Z"/></g></g></svg>