<svg xmlns="http://www.w3.org/2000/svg" xmlns:xlink="http://www.w3.org/1999/xlink" viewBox="0 0 47.71 99.68"><defs><style>.cls-1{fill:url(#linear-gradient);}.cls-2{fill:#fff;}.cls-3{mask:url(#mask);}.cls-4{opacity:0.7;}</style><linearGradient id="linear-gradient" x1="24.2" y1="79.49" x2="24.2" y2="49.84" gradientUnits="userSpaceOnUse"><stop offset="0"/><stop offset="0.12" stop-color="#040404"/><stop offset="0.25" stop-color="#111"/><stop offset="0.37" stop-color="#252525"/><stop offset="0.5" stop-color="#434343"/><stop offset="0.63" stop-color="#686868"/><stop offset="0.76" stop-color="#969696"/><stop offset="0.89" stop-color="#cbcbcb"/><stop offset="1" stop-color="#fff"/></linearGradient><mask id="mask" x="-19.2" y="49.84" width="86.81" height="49.84" maskUnits="userSpaceOnUse"><rect class="cls-1" x="-19.2" y="49.84" width="86.81" height="29.65"/></mask></defs><title>Asset 11</title><g id="Layer_2" data-name="Layer 2"><g id="Layer_1-2" data-name="Layer 1"><path class="cls-2" d="M0,12V41.84l14.57,8V28.71a27.08,27.08,0,0,1-6.08-12Z"/><path class="cls-2" d="M37.92,14.65a24.28,24.28,0,0,1-4.78,12.59v14.6l14.57,8V20Z"/><path class="cls-2" d="M30.31,12.93c0-.15,0-.29,0-.44L18.81,18.8a7.24,7.24,0,0,0,11.5-5.87Z"/><path class="cls-2" d="M24,35.6,23,36.22l-1-.7a37.75,37.75,0,0,1-5.37-4.6V49.84l14.57-8V29.7A31.84,31.84,0,0,1,24,35.6Z"/><path class="cls-2" d="M23.06,33.87S36,26.48,36,12.93a12.93,12.93,0,1,0-25.87,0C10.12,25.15,23.06,33.87,23.06,33.87ZM13.8,12.93a9.25,9.25,0,1,1,9.26,9.26A9.26,9.26,0,0,1,13.8,12.93Z"/><g class="cls-3"><g class="cls-4"><path class="cls-2" d="M0,87.65V57.84l14.57-8V71A27.08,27.08,0,0,0,8.49,83Z"/><path class="cls-2" d="M37.92,85a24.28,24.28,0,0,0-4.78-12.59V57.84l14.57-8V79.65Z"/><path class="cls-2" d="M24,64.08,23,63.46l-1,.7a37.75,37.75,0,0,0-5.37,4.6V49.84l14.57,8V70A31.84,31.84,0,0,0,24,64.08Z"/><path class="cls-2" d="M10.12,86.75a12.93,12.93,0,1,0,25.87,0c0-13.54-12.93-20.93-12.93-20.93S10.12,74.54,10.12,86.75Z"/></g></g></g></g></svg>
