<svg xmlns="http://www.w3.org/2000/svg" xmlns:xlink="http://www.w3.org/1999/xlink" viewBox="0 0 47.28 69.88"><defs><style>.cls-1{fill:url(#linear-gradient);}.cls-2,.cls-4{fill:#fff;}.cls-3{mask:url(#mask);}.cls-4{opacity:0.7;}</style><linearGradient id="linear-gradient" x1="23.64" y1="64.59" x2="23.64" y2="34.94" gradientUnits="userSpaceOnUse"><stop offset="0"/><stop offset="0.12" stop-color="#040404"/><stop offset="0.25" stop-color="#111"/><stop offset="0.37" stop-color="#252525"/><stop offset="0.5" stop-color="#434343"/><stop offset="0.63" stop-color="#686868"/><stop offset="0.76" stop-color="#969696"/><stop offset="0.89" stop-color="#cbcbcb"/><stop offset="1" stop-color="#fff"/></linearGradient><mask id="mask" x="-19.76" y="34.94" width="86.81" height="34.94" maskUnits="userSpaceOnUse"><rect class="cls-1" x="-19.76" y="34.94" width="86.81" height="29.65"/></mask></defs><title>Asset 12</title><g id="Layer_2" data-name="Layer 2"><g id="Layer_1-2" data-name="Layer 1"><path class="cls-2" d="M44.08,0H3.2A3.2,3.2,0,0,0,0,3.2V31.74a3.2,3.2,0,0,0,3.2,3.2H44.08a3.2,3.2,0,0,0,3.2-3.2V3.2A3.2,3.2,0,0,0,44.08,0Zm.52,30A1.2,1.2,0,0,1,43,31.82L28.82,19.08,24.44,23a1.2,1.2,0,0,1-1.61,0l-4.38-3.94L4.29,31.82A1.2,1.2,0,1,1,2.68,30l14-12.56L2.68,4.91a1.2,1.2,0,1,1,1.6-1.79L23.64,20.51,43,3.12a1.2,1.2,0,1,1,1.6,1.79l-14,12.56Z"/><g class="cls-3"><path class="cls-4" d="M47.28,66.68V38.14a3.2,3.2,0,0,0-3.2-3.2H3.2A3.2,3.2,0,0,0,0,38.14V66.68a3.2,3.2,0,0,0,3.2,3.2H44.08A3.2,3.2,0,0,0,47.28,66.68ZM30.62,52.41,44.6,65A1.2,1.2,0,1,1,43,66.75L23.64,49.36,4.29,66.75A1.2,1.2,0,1,1,2.68,65l14-12.56-14-12.56a1.2,1.2,0,1,1,1.6-1.78L18.46,50.79l4.38-3.94a1.2,1.2,0,0,1,1.61,0l4.38,3.93L43,38.06a1.2,1.2,0,0,1,1.6,1.79Z"/></g></g></g></svg>
