<?xml version="1.0" encoding="utf-8"?>
<!-- Generator: Adobe Illustrator 19.1.0, SVG Export Plug-In . SVG Version: 6.00 Build 0)  -->
<svg version="1.1" id="Layer_1" xmlns="http://www.w3.org/2000/svg" xmlns:xlink="http://www.w3.org/1999/xlink" x="0px" y="0px"
	 viewBox="-30 33.6 58.2 58.2" style="enable-background:new -30 33.6 58.2 58.2;" xml:space="preserve">
<style type="text/css">
	.st0{fill:none;}
	.st1{fill:none;stroke:black;stroke-width:2;stroke-miterlimit:10;}
	.st2{fill:black;}
</style>
<rect x="-30" y="33.6" class="st0" width="58.2" height="58.2"/>
<circle class="st1" cx="-0.9" cy="62.7" r="28.1"/>
<path class="st2" d="M14,63.8c-1.3,0-2.5,0.3-3.4,0.8c-0.4-0.7-0.7-1.3-0.8-1.8c-0.1-0.5-0.2-0.9-0.1-1.5s0.5-1.5,0.4-1.6
	c0-0.1-0.1-0.4-0.8-0.4c-0.8,0-1.4,0.1-1.5,0.3s-0.2,0.7-0.3,1.1c-0.1,0.7-1.5,3.1-2.3,4.4c-0.3-0.5-0.5-0.9-0.5-1.3
	c-0.1-0.5-0.2-0.9-0.1-1.5s0.5-1.5,0.4-1.6c0-0.1-0.1-0.4-0.8-0.4c-0.8,0-1.4,0.1-1.5,0.3s-0.2,0.7-0.3,1.1s-2,4.6-2.5,5.6
	c-0.2,0.5-0.5,1-0.6,1.3l0,0c0,0,0,0,0,0.1c-0.1,0.3-0.2,0.4-0.2,0.4l0,0c-0.1,0.2-0.2,0.4-0.3,0.4c0,0-0.1-0.5,0-1.2
	c0.3-1.4,0.9-3.6,0.9-3.7c0,0,0.1-0.4-0.4-0.6c-0.5-0.2-0.7,0.1-0.8,0.1l-0.1,0.1c0,0,0.6-2.5-1.1-2.5c-1.1,0-2.6,1.2-3.3,2.3
	c-0.5,0.3-1.5,0.8-2.5,1.4c-0.4,0.2-0.8,0.5-1.2,0.7L-9.8,66c-2.1-2.3-6-3.8-5.8-6.9c0.1-1.1,0.4-4,7.5-7.5
	c5.8-2.9,10.4-2.1,11.2-0.3c1.1,2.5-2.5,7.2-8.5,7.8c-2.3,0.3-3.5-0.6-3.8-1c-0.3-0.3-0.4-0.4-0.5-0.3c-0.2,0.1-0.1,0.4,0,0.6
	c0.2,0.5,0.9,1.3,2.2,1.7c1.1,0.4,3.8,0.6,7-0.7C3.1,58,6,54.1,5.1,50.8c-0.8-3.3-6.3-4.4-11.5-2.6c-3.1,1.1-6.5,2.8-8.9,5.1
	c-2.9,2.7-3.3,5-3.1,6c0.7,3.5,5.5,5.7,7.4,7.4c-0.1,0.1-0.2,0.1-0.3,0.1c-1,0.5-4.6,2.4-5.5,4.4c-1,2.3,0.2,3.9,1,4.1
	c2.5,0.7,5-0.5,6.3-2.6s1.2-4.7,0.6-5.9l0,0c0.2-0.1,0.5-0.3,0.8-0.4c0.5-0.3,1-0.6,1.4-0.8c-0.2,0.6-0.4,1.4-0.5,2.5
	c-0.1,1.3,0.4,3,1.1,3.6C-5.8,72-5.4,72-5.2,72c0.8,0,1.2-0.7,1.6-1.5c0.5-1,0.9-2.1,0.9-2.1s-0.6,3.1,1,3.1c0.6,0,1.1-0.7,1.4-1.1
	l0,0c0,0,0,0,0-0.1c0.1-0.1,0.1-0.1,0.1-0.1l0,0c0.2-0.4,0.7-1.3,1.5-2.7c0.9-1.9,1.9-4.2,1.9-4.2s0.1,0.6,0.4,1.5
	c0.2,0.6,0.5,1.2,0.8,1.8C4.2,66.9,4,67.1,4,67.1l0,0c-0.2,0.2-0.4,0.5-0.6,0.7c-0.8,0.9-1.6,1.9-1.8,2.2c-0.1,0.4-0.1,0.6,0.2,0.8
	C2,71,2.4,71,2.7,71c0.7,0,1.1-0.2,1.4-0.3c0.4-0.1,0.8-0.3,1.2-0.6c0.7-0.5,1.2-1.3,1.1-2.3c0-0.6-0.2-1.1-0.4-1.7
	c0.1-0.1,0.1-0.2,0.2-0.3c1.2-1.7,2.1-3.6,2.1-3.6s0.1,0.6,0.4,1.5c0.1,0.5,0.4,1,0.7,1.5c-1.1,0.9-1.8,1.9-2,2.6
	c-0.4,1.3-0.1,1.8,0.5,1.9c0.3,0.1,0.7-0.1,1-0.2c0.4-0.1,0.8-0.3,1.3-0.7c0.7-0.5,1.4-1.3,1.4-2.3c0-0.5-0.1-0.9-0.3-1.4
	c0.9-0.4,2.1-0.6,3.7-0.4c3.3,0.4,3.9,2.4,3.8,3.3c-0.1,0.9-0.8,1.3-1,1.5c-0.2,0.2-0.3,0.2-0.3,0.3c0,0.2,0.1,0.1,0.3,0.1
	c0.3,0,1.7-0.7,1.8-2.3C19.3,66,17.4,63.8,14,63.8z M-11.3,72.3c-1.1,1.2-2.6,1.6-3.3,1.3c-0.7-0.4-0.4-2.2,0.9-3.4
	c0.8-0.8,1.9-1.5,2.6-1.9c0.2-0.1,0.4-0.2,0.7-0.4h0.1l0,0c0.1,0,0.1-0.1,0.2-0.1C-9.7,69.5-10.2,71.1-11.3,72.3z M-3.4,67
	c-0.4,0.9-1.2,3.3-1.7,3.2c-0.4-0.1-0.7-1.9-0.1-3.7c0.3-0.9,0.9-1.9,1.3-2.4c0.6-0.7,1.2-0.9,1.4-0.6C-2.2,63.8-3.1,66.4-3.4,67z
	 M3.2,70.1c-0.2,0.1-0.3,0.1-0.4,0.1l0.1-0.1c0,0,0.8-0.9,1.1-1.3c0.2-0.2,0.4-0.5,0.6-0.8v0.1C4.6,69.1,3.6,69.8,3.2,70.1z
	 M8.2,68.9c-0.1-0.1-0.1-0.4,0.3-1.2c0.2-0.3,0.5-0.9,1.1-1.4c0.1,0.2,0.1,0.4,0.1,0.6C9.7,68.2,8.8,68.7,8.2,68.9z"/>
</svg>
