<?xml version="1.0" encoding="utf-8"?>
<!-- Svg Vector Icons : http://www.onlinewebfonts.com/icon -->
<!DOCTYPE svg PUBLIC "-//W3C//DTD SVG 1.1//EN" "http://www.w3.org/Graphics/SVG/1.1/DTD/svg11.dtd">
<svg version="1.1" xmlns="http://www.w3.org/2000/svg" xmlns:xlink="http://www.w3.org/1999/xlink" x="0px" y="0px" viewBox="0 0 1000 1000" enable-background="new 0 0 1000 1000" xml:space="preserve">
<metadata> Svg Vector Icons : http://www.onlinewebfonts.com/icon </metadata>
<g><g><g><path d="M499.4,990c-67.2,0-130.7-12.9-190.4-38.6c-59.7-25.8-111.6-60.9-155.7-105.3c-44.1-44.4-79-96.5-104.7-156.2C22.9,630.1,10,566.6,10,499.4c0-67.2,12.9-130.7,38.6-190.4s60.7-111.6,104.7-155.7c44.1-44.1,95.9-79,155.7-104.7C368.8,22.9,432.2,10,499.4,10c67.2,0,130.7,12.9,190.4,38.6c59.7,25.8,111.8,60.7,156.2,104.7c44.4,44.1,79.5,95.9,105.3,155.7c25.8,59.7,38.6,123.2,38.6,190.4c0,67.2-12.9,130.7-38.6,190.4c-25.8,59.7-60.9,111.8-105.3,156.2c-44.4,44.4-96.5,79.5-156.2,105.3C630.1,977.1,566.6,990,499.4,990z M499.4,44.7c-62.7,0-121.7,11.9-177,35.8c-55.3,23.9-103.6,56.4-145,97.4c-41.4,41.1-74.1,89.2-98,144.5c-23.9,55.3-35.8,114.2-35.8,177c0,62.7,11.9,121.7,35.8,177c23.9,55.2,56.6,103.6,98,145c41.4,41.4,89.8,74.1,145,98c55.3,23.9,114.2,35.8,177,35.8c62.7,0,121.7-11.9,177-35.8c55.2-23.9,103.6-56.6,145-98c41.4-41.4,74.1-89.8,98-145c23.9-55.3,35.8-114.2,35.8-177c0-62.7-11.9-121.7-35.8-177c-23.9-55.3-56.6-103.4-98-144.5c-41.4-41.1-89.8-73.5-145-97.4C621.1,56.7,562.2,44.7,499.4,44.7z M381.8,900.4c18.7,5.2,37.9,9.3,57.7,12.3c19.8,3,39.8,4.5,59.9,4.5c47,0,93.3-8.2,138.9-24.6l-131-352.8L381.8,900.4z M285.5,263.1c4.5,0,8.6,1.5,12.3,4.5c3.7,3,6,6.7,6.7,11.2c1.5,10.5-3.7,16.4-15.7,17.9c-8.2,1.5-16.1,2.4-23.5,2.8c-7.5,0.4-15.3,0.9-23.5,1.7l152.3,449.1l91.8-271l-66.1-177c-14.2-1.5-25.2-2.8-33-3.9c-7.8-1.1-12.1-1.7-12.9-1.7c-4.5-0.7-8.2-3-11.2-6.7s-3.7-7.8-2.2-12.3c0.7-4.5,3-8.2,6.7-11.2s7.8-3.7,12.3-2.2l15.7,2.2c0,0,14.7,1.1,44.2,3.4c29.5,2.2,52.5,2.2,68.9,0c16.4-2.2,46.7-4.5,90.7-6.7c4.5,0,8.6,1.5,12.3,4.5c3.7,3,6,6.7,6.7,11.2c1.5,10.5-3.7,16.4-15.7,17.9c-8.2,1.5-16.1,2.4-23.5,2.8c-7.5,0.4-14.9,0.9-22.4,1.7l151.2,449.1c11.9-40.3,21.8-73.9,29.7-100.8c7.8-26.9,14.4-48.9,19.6-66.1c6-19.4,10.5-35.1,13.4-47c8.2-26.9,11.4-52.8,9.5-77.8c-1.9-25-8-46.1-18.5-63.3c-4.5-9-11-20.2-19.6-33.6s-16.2-27.8-23-43.1c-6.7-15.3-11.2-30.6-13.4-45.9c-2.2-15.3,0-29.3,6.7-42c9.7-17.2,20.5-28.2,32.5-33c11.9-4.9,24.3-6.5,37-5c-37.3-34.3-80.1-61.2-128.2-80.6c-48.2-19.4-99.5-29.1-154-29.1c-73.2,0-140.2,17-201,51c-60.9,34-109.9,79.3-147.3,136.1c17.9,0.7,38.1,0.7,60.5,0C234,269.1,258.6,266.9,285.5,263.1z M82.8,499.4c0,41.1,5.6,80.6,16.8,118.7c11.2,38.1,27.3,73.4,48.2,105.8c20.9,32.5,45.7,61.6,74.5,87.4c28.7,25.8,60.7,46.9,95.8,63.3L117.5,332.6C94.4,385.6,82.8,441.2,82.8,499.4z M916.1,499.4c0-70.2-16.1-135.1-48.2-194.9c1.5,8.2,2.2,16.2,2.2,24.1s-0.4,15.9-1.1,24.1c-4.5,40.3-12.3,76.9-23.5,109.8c-11.2,32.9-22,64.2-32.5,94.1c-4.5,12.7-11.6,33.6-21.3,62.7c-9.7,29.1-20.2,59.5-31.4,91.3c-11.2,31.7-21.7,61.8-31.4,90.2c-9.7,28.4-16.8,48.5-21.3,60.5c31.4-17.9,59.7-39.8,85.1-65.5c25.4-25.8,47.2-54.1,65.5-85.1c18.3-31,32.5-64.2,42.6-99.7C911,575.4,916.1,538.3,916.1,499.4z"/></g></g><g></g><g></g><g></g><g></g><g></g><g></g><g></g><g></g><g></g><g></g><g></g><g></g><g></g><g></g><g></g></g>
</svg>